<?xml version="1.0" encoding="iso-8859-1"?>
<!-- Generator: Adobe Illustrator 19.0.0, SVG Export Plug-In . SVG Version: 6.00 Build 0)  -->
<svg version="1.1" id="Layer_1" xmlns="http://www.w3.org/2000/svg" xmlns:xlink="http://www.w3.org/1999/xlink" x="0px" y="0px"
	 viewBox="0 0 512 512" style="enable-background:new 0 0 512 512;" xml:space="preserve">
<g>
	<g>
		<path d="M493.268,0H18.732C8.387,0,0,8.387,0,18.732v474.537C0,503.613,8.387,512,18.732,512h474.537
			c10.345,0,18.732-8.387,18.732-18.732V18.732C512,8.387,503.613,0,493.268,0z M474.537,474.537H37.463V37.463h437.073V474.537z"/>
	</g>
</g>
<g>
	<g>
		<path d="M362.683,294.828h-32.08l10.084-77.658h21.996c24.752,0,24.778-37.463,0-37.463h-17.131l3.634-27.98
			c3.188-24.541-33.961-29.403-37.151-4.824l-4.26,32.804h-77.343l3.633-27.98c3.188-24.546-33.961-29.396-37.151-4.824
			l-4.26,32.804h-43.339c-24.752,0-24.778,37.463,0,37.463h38.474l-10.084,77.658h-28.39v0c-24.752,0-24.778,37.463,0,37.463h23.526
			l-3.633,27.98c-3.187,24.537,33.959,29.411,37.151,4.824l4.26-32.804h77.342l-3.634,27.98
			c-3.179,24.467,33.912,29.778,37.151,4.824l4.26-32.804h36.945C387.435,332.292,387.462,294.828,362.683,294.828z M292.827,294.83
			h-77.343l10.084-77.658h77.343L292.827,294.83z"/>
	</g>
</g>
<g>
</g>
<g>
</g>
<g>
</g>
<g>
</g>
<g>
</g>
<g>
</g>
<g>
</g>
<g>
</g>
<g>
</g>
<g>
</g>
<g>
</g>
<g>
</g>
<g>
</g>
<g>
</g>
<g>
</g>
</svg>
